# xmcd
#
# Track frame offsets: 
#        150
#        19547
#        40390
#        56274
#        72090
#        83562
#        95725
#        116195
#        130814
#        144346
#        159679
#        173271
#        188214
#        206461
#        221266
#        235473
#        254539
#        270679
#
# Disc length: 3854 seconds
#
# Revision: 1
# Processed by: cddbd v1.5.2PL0 Copyright (c) Steve Scherf et al.
# Submitted via: ExactAudioCopy v0.95b2
#
DISCID=f80f0c12
DTITLE=Various Artist - New Orleans Jazz Party
DYEAR=1998
DGENRE=Jazz
TTITLE0=Firehouse Five Plus Two - High Society
TTITLE1=Louis Armstrong - (Back Home Again In) Indiana
TTITLE2=Kid Ory's Creole Jazz Band - Royal Garden Blues
TTITLE3=Castle Jazz Band - Careless Love
TTITLE4=Lu Waters Yerba Buena Jazz Band - Muskrat Ramble
TTITLE5=Bunk Johnson And His Superior Jazz Band - Down By The Riversid
TTITLE5=e
TTITLE6=Silver Leaf Jazz Band - Shreveport Stomp
TTITLE7=The Bay City Jazz Band - New Orleans Stomp
TTITLE8=Firehouse Five Plus Two - Yes Sir! That's My Baby
TTITLE9=Louis Armstrong - Mack The Knife
TTITLE10=George Lewis - Mama Don't Allow
TTITLE11=Kid Ory's Creole Jazz Band - St. Louis Blues
TTITLE12=Castle Jazz Band - Sweet Georgia Brown
TTITLE13=Kid Thomas And His Algiers Stompers - That's A Plenty
TTITLE14=Bunk Johnson And His Superior Jazz Band - Storyville Blues
TTITLE15=Firehouse Five Plus Two - Hello, Dolly!
TTITLE16=Teddy Buckner - Savoy Blues
TTITLE17=Castle Jazz Band - When The Saints Go Marching In
EXTD=YEAR: 1998
EXTT0=
EXTT1=
EXTT2=
EXTT3=
EXTT4=
EXTT5=
EXTT6=
EXTT7=
EXTT8=
EXTT9=
EXTT10=
EXTT11=
EXTT12=
EXTT13=
EXTT14=
EXTT15=
EXTT16=
EXTT17=
PLAYORDER=
